{"title":"In Search of Santa 2004 DVDrip Dutch Klam","uid":6851802,"size":1460028220,"categoryP":"video","categoryS":"movies","magnet":"?xt=urn:btih:19f5559afc77dda94fd9af0afe885c8ef763a543&amp;dn=In+Search+of+Santa+2004+DVDrip+Dutch+Klam&amp;tr=udp%3A%2F%2Ftracker.openbittorrent.com%3A80&amp;tr=udp%3A%2F%2Fopen.demonii.com%3A1337&amp;tr=udp%3A%2F%2Ftracker.coppersurfer.tk%3A6969&amp;tr=udp%3A%2F%2Fexodus.desync.com%3A6969","seeders":0,"leechers":0,"uploader":"Klambake","files":-1,"time":1322558635,"description":"Nederlands gesproken,\nDe film gaat over de pinguin prinsessenzusjes Crystal en Lucinda. Als een kleine tinkerbel uit het niets ineens uit de lucht komt vallen is prinses Crystal er zeer van overtuigd dat deze afkomstig is van ÃƒÂ©ÃƒÂ©n van de rendieren van de kerstman. Tezamen met haar zusje prinses Lucinda gaat ze op reis naar de Noordpool, een gevaarlijke reis om de kerstman te vinden.\n\nDutch Spoken,\nWhen a sleigh bell mysteriously falls from the sky, pure-hearted Princess Crystal is determined to prove it came from one of Santa's reindeer...\n\n------------------------ Dutch Friends ------------------------\n---------------------------------------------------------------\n- Bezoek ook eens mijn vrienden op: &lt;a href=&quot; http://www.Film-Test.nl&quot; rel=&quot;nofollow&quot; target=&quot;_NEW&quot;&gt; http://www.Film-Test.nl&lt;/a&gt; --\n----- voor mijn Nederlandse Sync. ondertitels ---- en meer ----\n------- http://www.Film-Test.nl ---- voor Films en meer -------\n---------------------------------------------------------------\n\nGeneral:\n\nComplete name                    : In Search of Santa\\In Search of Santa.avi\nFormat                           : AVI\nFormat/Info                      : Audio Video Interleave\nFile size                        : 1.36 GiB\nDuration                         : 1h 16mn\nOverall bit rate                 : 2 533 Kbps\n\nVideo:\n\nFormat                           : MPEG-4 Visual\nFormat profile                   : Simple@L3\nFormat settings, BVOP            : No\nFormat settings, QPel            : No\nFormat settings, GMC             : No warppoints\nFormat settings, Matrix          : Default (H.263)\nCodec ID                         : XVID\nCodec ID/Hint                    : XviD\nDuration                         : 1h 16mn\nBit rate                         : 2 074 Kbps\nWidth                            : 640 pixels\nHeight                           : 480 pixels\nDisplay aspect ratio             : 4:3\nFrame rate                       : 25.000 fps\nColor space                      : YUV\nChroma subsampling               : 4:2:0\nBit depth                        : 8 bits\nScan type                        : Progressive\nCompression mode                 : Lossy\nBits/(Pixel*Frame)               : 0.270\nStream size                      : 1.11 GiB (82%)\nWriting library                  : XviD 1.1.2 (UTC 2006-11-01)\n\nAudio:\n\nFormat                           : AC-3\nFormat/Info                      : Audio Coding 3\nMode extension                   : CM (complete main)\nCodec ID                         : 2000\nDuration                         : 1h 16mn\nBit rate mode                    : Constant\nBit rate                         : 448 Kbps\nChannel(s)                       : 6 channels\nChannel positions                : Front: L C R, Side: L R, LFE\nSampling rate                    : 48.0 KHz\nBit depth                        : 16 bits\nCompression mode                 : Lossy\nStream size                      : 246 MiB (18%)\nAlignment                        : Aligned on interleaves\nInterleave, duration             : 32 ms (0.80 video frame)\nInterleave, preload duration     : 768 ms\n\n","torrent":{"xt":"urn:btih:19f5559afc77dda94fd9af0afe885c8ef763a543","amp;dn":"In+Search+of+Santa+2004+DVDrip+Dutch+Klam","amp;tr":["udp%3A%2F%2Ftracker.openbittorrent.com%3A80","udp%3A%2F%2Fopen.demonii.com%3A1337","udp%3A%2F%2Ftracker.coppersurfer.tk%3A6969","udp%3A%2F%2Fexodus.desync.com%3A6969"],"infoHash":"19f5559afc77dda94fd9af0afe885c8ef763a543","infoHashBuffer":{"type":"Buffer","data":[25,245,85,154,252,119,221,169,79,217,175,10,254,136,92,142,247,99,165,67]},"announce":[],"urlList":[]}}